<?xml version="1.0" standalone="no"?>
<!DOCTYPE svg PUBLIC "-//W3C//DTD SVG 20010904//EN"
 "http://www.w3.org/TR/2001/REC-SVG-20010904/DTD/svg10.dtd">
<svg version="1.0" xmlns="http://www.w3.org/2000/svg"
 width="2048.000000pt" height="2048.000000pt" viewBox="0 0 2048.000000 2048.000000"
 preserveAspectRatio="xMidYMid meet">

<g transform="translate(0.000000,2048.000000) scale(0.100000,-0.100000)"
fill="#000000" stroke="none">
<path d="M9877 20237 c-74 -21 -106 -65 -243 -332 -165 -324 -185 -365 -254
-520 -32 -71 -83 -184 -114 -250 -70 -147 -147 -330 -155 -370 -8 -36 -34 -50
-126 -65 -304 -50 -710 -159 -990 -265 -239 -90 -616 -269 -760 -360 -244
-153 -343 -223 -519 -368 -210 -173 -376 -348 -552 -582 -159 -211 -265 -405
-384 -695 -121 -299 -182 -491 -254 -805 -79 -339 -107 -529 -145 -965 -6 -63
-15 -167 -21 -231 -5 -63 -10 -156 -10 -207 0 -118 -27 -398 -46 -481 -17 -76
-32 -110 -100 -221 -57 -95 -189 -369 -181 -377 3 -3 -1 -24 -10 -46 -8 -23
-19 -58 -25 -77 -5 -19 -13 -48 -18 -65 -51 -176 -89 -413 -90 -561 0 -119 37
-328 84 -468 31 -90 92 -229 118 -268 30 -44 24 -60 -19 -53 -48 8 -56 11
-187 76 -60 30 -139 77 -176 104 -37 28 -104 73 -149 100 -142 87 -204 135
-444 345 -494 432 -679 640 -899 1010 -102 172 -194 327 -208 352 -8 14 -37
63 -65 108 -159 257 -177 275 -275 274 -99 -2 -169 -68 -192 -179 -6 -30 -16
-55 -22 -55 -7 0 -34 22 -61 50 -96 97 -201 118 -291 58 -89 -60 -113 -156
-84 -337 6 -35 10 -65 8 -66 -2 -2 -26 17 -53 41 -95 85 -206 163 -247 174
-93 26 -184 -15 -231 -103 -19 -37 -22 -57 -21 -169 0 -71 -4 -128 -9 -128 -5
0 -30 17 -56 38 -99 81 -163 112 -229 112 -98 0 -178 -82 -189 -194 -4 -40 1
-68 22 -126 31 -84 107 -235 180 -355 49 -80 469 -723 510 -780 74 -102 232
-307 370 -480 88 -111 172 -216 187 -235 176 -229 225 -291 256 -322 43 -44
352 -324 432 -392 122 -103 372 -293 479 -364 129 -85 130 -77 -12 -111 -162
-38 -307 -104 -472 -212 -133 -89 -188 -146 -304 -319 -97 -147 -131 -218
-182 -390 -26 -88 -29 -217 -16 -750 4 -179 12 -518 18 -755 14 -627 27 -1156
38 -1610 26 -1023 31 -1205 41 -1565 5 -212 14 -565 20 -785 5 -220 14 -560
20 -755 6 -195 10 -423 10 -505 0 -197 14 -255 74 -310 35 -34 55 -43 107 -52
45 -9 401 -14 1179 -19 613 -4 1129 -6 1145 -4 85 7 89 6 96 -20 4 -14 24 -92
43 -175 35 -143 53 -198 161 -470 148 -374 380 -649 725 -861 36 -22 83 -48
105 -58 22 -11 66 -31 97 -46 58 -28 241 -88 338 -111 30 -7 114 -13 185 -13
106 0 146 4 220 23 227 61 378 150 663 396 160 137 325 375 427 615 10 25 33
77 51 116 52 115 82 312 65 429 -13 86 -14 172 -3 179 5 3 615 10 1356 16
1049 9 1350 9 1361 0 8 -7 15 -24 15 -39 0 -15 6 -35 14 -46 7 -11 16 -38 20
-60 7 -42 39 -181 58 -250 19 -70 55 -170 106 -295 17 -41 43 -106 59 -145 15
-38 42 -96 60 -128 18 -33 33 -61 33 -63 0 -23 201 -288 265 -349 65 -63 232
-194 305 -240 157 -99 389 -194 565 -231 98 -21 299 -23 375 -5 90 22 200 61
272 97 134 67 337 218 491 363 125 118 305 400 388 606 4 11 19 45 32 75 60
137 74 257 58 491 -6 96 -11 191 -11 212 l0 37 333 0 c182 0 474 -4 647 -10
173 -5 570 -10 881 -12 l565 -3 40 30 c21 16 45 36 52 45 40 49 40 40 47 1047
6 693 11 970 19 975 6 4 29 8 51 8 40 0 186 34 280 65 228 75 310 111 550 245
274 152 685 498 926 780 58 68 219 291 219 304 0 5 8 20 19 34 45 64 168 305
229 447 83 196 178 502 224 720 5 28 14 66 18 85 27 119 59 304 82 470 17 124
17 590 0 725 -48 375 -88 568 -188 900 -85 283 -134 406 -279 696 -141 283
-333 552 -447 625 -30 19 -51 24 -101 24 -55 0 -67 -4 -98 -30 -76 -62 -85
-128 -38 -272 59 -180 104 -421 134 -728 17 -164 20 -644 7 -958 l-7 -163
-180 -4 c-314 -5 -491 -54 -565 -156 -61 -85 -46 -176 51 -305 68 -89 152
-215 258 -384 86 -138 95 -150 149 -184 23 -14 42 -29 42 -32 0 -13 -80 -151
-122 -211 -58 -82 -147 -183 -162 -183 -7 0 -33 18 -57 41 -115 107 -525 415
-614 462 -29 15 -58 21 -102 21 -54 0 -68 -4 -100 -30 -65 -52 -84 -104 -99
-277 -28 -320 -36 -384 -51 -439 -9 -35 -21 -58 -29 -58 -12 0 -13 108 -9 687
3 379 8 774 11 878 10 305 7 893 -5 982 -19 150 -63 239 -225 458 -106 143
-312 351 -415 419 -80 53 -192 101 -274 117 -92 17 -317 39 -403 39 -70 0 -84
3 -84 16 0 9 25 56 55 106 73 118 196 366 274 553 66 155 71 167 142 325 36
82 42 105 43 165 0 82 -17 121 -71 162 -34 26 -44 28 -147 32 -108 3 -350 -9
-571 -30 -130 -12 -394 -46 -429 -55 -20 -5 -39 9 -115 78 -50 45 -91 86 -91
90 0 4 13 36 28 70 16 35 41 95 56 133 16 39 32 79 36 90 5 11 16 41 26 68 13
36 43 74 129 160 311 313 472 494 779 877 184 229 357 482 376 549 24 85 2
167 -59 229 -53 52 -254 163 -456 251 -55 24 -122 53 -150 66 -27 12 -72 32
-100 45 -107 47 -162 75 -213 107 l-53 33 3 376 3 375 39 37 c51 50 161 182
218 262 135 192 370 607 432 765 134 338 210 694 176 833 -22 92 -102 161
-220 190 -56 14 -309 38 -545 52 -300 18 -453 31 -595 51 -74 11 -176 25 -226
31 l-91 10 -44 56 c-85 109 -194 229 -356 393 -148 150 -163 169 -163 200 1
55 19 278 30 359 40 311 63 708 65 1115 0 96 -3 116 -24 159 -47 96 -158 132
-265 87 -69 -30 -240 -131 -445 -264 -204 -131 -273 -181 -496 -362 -258 -210
-357 -290 -374 -302 -13 -10 -27 -9 -66 3 -210 63 -565 140 -800 173 -183 26
-228 35 -240 48 -8 7 -21 37 -29 66 -9 30 -40 105 -70 168 -63 133 -196 428
-196 434 0 2 -11 28 -24 57 -13 29 -38 91 -56 138 -38 102 -38 102 -86 215
-21 50 -47 106 -57 125 -54 100 -116 197 -149 235 -57 65 -146 94 -221 72z
m179 -773 c55 -137 119 -290 142 -341 58 -130 142 -338 142 -353 0 -9 -18 -10
-82 -4 -46 5 -242 9 -436 9 -317 0 -352 2 -352 16 0 9 42 101 94 205 51 104
104 212 116 239 38 84 145 297 179 353 17 29 31 55 31 57 0 15 45 75 54 72 6
-2 56 -116 112 -253z m3048 -706 c-5 -195 -18 -367 -54 -697 -5 -46 -14 -89
-19 -94 -7 -7 -24 -1 -53 20 -24 17 -68 43 -98 58 -30 15 -70 40 -90 56 -36
28 -188 103 -360 177 -126 54 -189 86 -190 94 0 7 240 201 365 294 131 97 468
312 493 313 9 1 11 -47 6 -221z m-2834 -353 c890 -78 1501 -219 2069 -478 218
-99 287 -136 446 -242 192 -128 361 -272 547 -466 313 -327 447 -517 644 -910
139 -278 217 -477 303 -774 75 -258 100 -413 121 -735 13 -205 13 -1532 0
-1658 -41 -381 -41 -379 -92 -682 -16 -100 -85 -382 -114 -468 -61 -181 -106
-293 -216 -532 -43 -93 -52 -138 -38 -190 16 -58 60 -103 144 -146 138 -70
235 -185 336 -398 78 -165 116 -285 160 -501 6 -33 16 -79 21 -102 5 -23 9
-69 9 -102 l0 -61 -292 0 c-161 0 -615 5 -1008 10 -956 13 -2385 31 -4840 60
-1976 23 -3211 36 -3280 36 -41 0 -284 3 -539 8 l-463 9 -29 46 c-32 52 -49
65 -117 87 -26 8 -58 20 -72 27 -34 16 -195 113 -245 147 -22 15 -80 54 -130
87 -127 84 -407 305 -555 436 -213 191 -320 305 -480 512 -85 110 -202 259
-260 330 -142 173 -300 386 -396 532 -42 65 -119 181 -171 259 -51 78 -93 145
-93 150 0 5 33 9 74 9 66 0 79 3 117 30 65 46 83 84 89 188 l5 88 90 -88 c110
-106 165 -138 245 -138 66 0 111 25 151 84 23 34 24 43 23 179 -1 78 1 142 5
142 3 0 29 -30 56 -67 78 -104 136 -160 188 -182 80 -34 166 -23 211 28 11 11
25 21 32 21 8 0 40 -39 71 -87 199 -299 368 -491 688 -779 50 -45 106 -94 125
-110 19 -16 67 -56 105 -90 174 -154 528 -403 750 -529 192 -109 390 -190 590
-243 22 -6 60 -16 83 -22 65 -17 170 -24 246 -15 54 5 74 12 101 36 46 41 71
115 55 166 -26 83 -84 180 -144 243 -71 74 -172 214 -212 291 -14 29 -41 91
-59 138 -30 77 -42 121 -75 268 -14 57 -12 303 1 377 59 319 118 478 290 783
38 67 80 150 93 185 39 103 76 422 76 649 0 64 4 151 9 195 6 43 15 135 21
204 27 313 49 478 92 695 51 256 98 437 167 645 194 578 372 879 736 1246 220
221 445 393 745 568 239 139 706 333 978 406 195 53 236 64 352 90 210 47 551
100 740 113 140 10 564 5 720 -8z m4315 -1754 c55 -6 122 -11 149 -11 27 0 87
-4 135 -10 47 -5 153 -17 236 -25 82 -9 152 -20 156 -26 16 -27 -60 -317 -139
-524 -39 -104 -136 -289 -249 -475 -135 -224 -152 -250 -162 -250 -4 0 -13 26
-20 58 -21 95 -79 297 -133 462 -73 222 -157 418 -300 698 -38 74 -66 137 -64
141 3 4 69 0 148 -10 79 -9 188 -22 243 -28z m311 -3016 c276 -129 489 -240
492 -257 4 -19 -36 -73 -257 -348 -285 -355 -445 -540 -456 -528 -4 3 3 75 14
159 32 253 61 679 61 909 0 75 4 130 9 128 5 -1 67 -30 137 -63z m441 -2683
c-3 -15 -21 -61 -40 -102 -19 -41 -45 -100 -58 -130 -84 -193 -260 -520 -280
-520 -3 0 -12 28 -19 63 -25 126 -63 275 -95 372 -29 89 -48 135 -102 253 -9
18 -12 36 -9 40 10 9 101 18 326 32 102 6 192 12 200 14 8 2 30 4 49 5 31 1
33 -1 28 -27z m-10597 -1237 c278 -3 840 -10 1250 -15 730 -10 2265 -30 3915
-50 457 -5 1195 -14 1640 -20 446 -6 990 -12 1210 -15 1803 -21 2269 -27 2540
-33 l310 -7 88 -42 c136 -66 215 -122 324 -231 181 -181 241 -278 269 -438 15
-81 16 -329 9 -2619 -4 -1391 -11 -2825 -14 -3185 l-6 -655 -175 0 c-200 0
-1807 24 -1948 29 -65 3 -98 8 -108 18 -8 8 -28 49 -43 91 -57 151 -105 207
-202 232 -44 12 -61 12 -108 1 -118 -29 -178 -60 -414 -213 -37 -24 -71 -42
-75 -39 -5 3 -14 41 -22 86 -27 157 -91 235 -202 247 -92 9 -149 -24 -288
-166 -63 -64 -126 -134 -140 -154 -14 -20 -30 -39 -36 -41 -6 -2 -48 50 -92
117 -103 158 -150 210 -217 241 -92 44 -184 32 -260 -35 -43 -38 -139 -181
-179 -267 -16 -34 -34 -62 -40 -62 -6 0 -64 42 -129 94 -168 133 -239 164
-349 152 -159 -16 -260 -121 -270 -281 l-3 -40 -305 -6 c-168 -4 -785 -9
-1372 -13 -912 -5 -1069 -4 -1081 8 -8 8 -24 68 -37 133 -51 269 -156 366
-350 322 -67 -15 -217 -92 -342 -175 -61 -41 -114 -74 -118 -74 -4 0 -15 39
-25 88 -10 48 -27 106 -38 129 -33 74 -108 123 -188 123 -87 0 -199 -84 -350
-261 -50 -60 -96 -106 -101 -103 -6 4 -47 63 -92 133 -121 185 -203 251 -311
251 -121 0 -204 -80 -326 -313 l-46 -89 -79 64 c-219 178 -298 213 -432 189
-72 -13 -93 -22 -138 -61 -76 -65 -104 -143 -104 -288 l0 -105 -267 6 c-148 4
-638 10 -1091 14 -764 6 -824 8 -832 23 -5 10 -14 220 -19 466 -6 247 -13 514
-16 594 -5 134 -11 344 -35 1370 -13 528 -32 1325 -59 2405 -6 237 -16 556
-21 710 -6 154 -10 345 -10 425 0 80 -5 183 -10 230 -18 153 21 424 76 536 35
72 181 252 247 306 55 45 347 196 430 222 23 7 69 19 102 26 33 7 74 16 90 21
17 5 138 7 270 4 132 -3 467 -7 745 -10z m13943 -747 c144 -436 200 -717 238
-1185 9 -119 9 -179 0 -280 -55 -574 -196 -1115 -393 -1508 -188 -375 -361
-595 -687 -875 -259 -222 -421 -332 -655 -445 -157 -76 -429 -165 -503 -165
l-33 0 2 728 3 727 25 -2 c14 0 59 -11 100 -23 200 -58 473 -25 675 83 78 42
261 165 345 233 349 281 545 585 688 1069 57 190 76 287 102 510 16 137 35
760 32 1033 -2 133 1 242 6 242 4 0 29 -64 55 -142z m-467 -1202 c9 -23 -51
-286 -81 -360 l-12 -28 -45 73 c-25 41 -67 110 -93 154 -27 44 -57 92 -68 107
-37 50 -22 57 120 61 70 1 138 4 151 5 12 1 25 -4 28 -12z m-1086 -1085 c108
-79 254 -209 270 -241 l18 -36 -46 -32 c-100 -67 -209 -110 -326 -127 -56 -9
-65 5 -47 74 28 111 40 174 51 267 6 54 13 107 16 117 6 19 10 17 64 -22z
m-10766 -4299 c83 -127 143 -190 213 -226 40 -20 138 -21 185 -1 46 18 110 81
182 178 32 42 62 77 66 77 4 0 14 -24 21 -52 18 -79 37 -119 72 -156 48 -51
84 -66 157 -66 80 0 116 18 285 145 132 98 245 170 272 173 13 1 19 -10 24
-44 4 -25 14 -83 22 -130 9 -47 21 -162 27 -256 26 -360 -24 -547 -227 -859
-96 -147 -216 -259 -423 -398 -163 -109 -260 -142 -415 -140 -95 1 -127 6
-233 37 -348 102 -646 332 -817 631 -25 44 -45 87 -45 95 0 9 -29 90 -65 180
-56 143 -89 252 -125 415 -27 122 -47 400 -29 410 14 9 91 -51 226 -178 118
-110 199 -132 301 -81 64 32 79 53 151 207 63 134 80 167 86 167 2 0 42 -58
89 -128z m5831 -80 c128 -195 199 -252 316 -252 97 0 150 39 278 203 29 37 57
65 61 62 5 -3 14 -29 20 -58 24 -116 95 -196 188 -211 84 -13 141 10 282 116
174 130 313 218 325 207 14 -14 53 -297 63 -449 10 -164 0 -333 -26 -430 -51
-187 -215 -462 -355 -597 -164 -157 -402 -314 -512 -338 -16 -3 -52 -10 -80
-16 -159 -31 -478 61 -695 202 -80 51 -235 174 -254 200 -7 11 -29 36 -47 57
-89 97 -171 232 -204 337 -13 39 -40 111 -60 160 -51 123 -71 188 -105 340
-40 182 -67 476 -42 475 18 -1 59 -33 172 -135 68 -60 136 -118 153 -128 70
-43 181 -30 246 28 37 34 47 51 136 242 28 60 52 99 59 96 6 -2 43 -53 81
-111z"/>
<path d="M7485 15754 c-90 -12 -174 -27 -205 -36 -171 -53 -323 -119 -426
-184 -131 -83 -152 -100 -264 -213 -131 -131 -216 -250 -286 -397 -91 -194
-110 -255 -139 -464 -30 -216 -8 -445 65 -655 108 -315 328 -597 599 -770 136
-86 310 -161 451 -194 25 -5 70 -16 100 -23 76 -17 394 -17 490 1 285 51 525
168 742 358 158 140 283 314 378 527 33 73 80 229 80 264 0 9 6 28 13 41 l12
23 350 -2 c218 -1 374 -6 414 -13 l64 -12 22 -105 c125 -595 562 -1032 1158
-1161 83 -18 136 -22 282 -23 177 0 252 8 375 41 556 150 960 576 1082 1143
28 130 30 434 3 560 -42 202 -119 386 -230 555 -68 102 -251 292 -360 373
-128 95 -342 190 -540 240 -143 37 -450 49 -570 24 -349 -73 -667 -257 -873
-505 -104 -125 -191 -264 -231 -367 -8 -19 -20 -48 -27 -65 -26 -60 -46 -132
-69 -240 l-22 -110 -409 0 -409 0 -11 85 c-19 139 -31 194 -64 292 -125 368
-395 681 -735 850 -158 79 -272 116 -440 143 -93 14 -317 26 -370 19z m335
-379 c193 -38 328 -95 470 -198 83 -60 214 -197 265 -276 141 -219 213 -493
186 -718 -36 -299 -138 -512 -342 -709 -131 -126 -261 -205 -426 -257 -145
-46 -182 -51 -348 -51 -173 1 -266 17 -405 72 -224 89 -422 255 -541 453 -61
103 -120 243 -137 329 -6 30 -15 79 -21 108 -22 106 -10 288 28 432 81 309
304 580 591 718 194 93 488 135 680 97z m3770 -90 c132 -26 176 -40 296 -96
203 -95 400 -290 503 -499 281 -571 45 -1248 -530 -1517 -52 -25 -177 -65
-259 -84 -83 -20 -338 -17 -430 5 -233 54 -390 138 -550 292 -173 167 -285
375 -326 608 -32 185 -8 440 55 591 125 294 327 507 587 618 196 84 471 119
654 82z"/>
<path d="M7530 15264 c-83 -14 -141 -30 -183 -51 -68 -34 -209 -145 -240 -190
-107 -155 -177 -472 -177 -800 0 -166 31 -343 81 -465 65 -159 198 -302 339
-366 102 -46 151 -56 280 -57 111 0 131 3 178 24 136 61 245 185 342 385 69
143 84 191 110 351 36 220 22 493 -37 694 -82 286 -296 462 -577 475 -50 3
-102 3 -116 0z m184 -398 c80 -34 116 -86 156 -226 51 -181 51 -187 47 -370
-3 -96 -9 -197 -15 -225 -29 -157 -151 -324 -238 -325 -41 0 -47 8 -25 39 36
50 69 127 86 198 26 107 17 323 -18 453 -43 157 -86 278 -127 361 -46 91 -48
106 -17 112 32 7 116 -2 151 -17z"/>
<path d="M11275 15131 c-38 -10 -88 -27 -110 -38 -72 -37 -203 -142 -233 -185
-111 -163 -174 -444 -176 -788 -1 -182 10 -266 54 -410 39 -126 88 -208 185
-305 122 -124 248 -179 430 -191 108 -8 180 9 262 58 65 39 167 144 218 224
136 213 194 435 195 741 0 380 -92 641 -277 781 -151 115 -365 159 -548 113z
m236 -376 c122 -43 166 -118 199 -335 14 -87 8 -450 -8 -520 -21 -95 -80 -236
-109 -262 -34 -31 -113 -61 -128 -48 -11 9 -10 18 5 53 10 23 26 77 35 121 8
43 21 88 28 100 8 14 12 74 11 186 0 133 -6 194 -28 315 -36 203 -52 267 -81
328 -14 28 -23 57 -21 64 7 17 44 16 97 -2z"/>
<path d="M7899 12587 c-82 -55 -101 -139 -51 -230 29 -54 162 -169 281 -242
33 -21 61 -43 61 -49 -1 -6 -7 -38 -15 -71 -27 -110 -13 -319 25 -381 33 -52
85 -79 155 -79 83 0 139 34 201 123 26 37 62 83 80 102 17 19 37 52 44 73 6
20 18 37 25 37 8 0 60 -11 117 -25 186 -46 298 -56 678 -61 322 -5 368 -3 495
15 77 12 165 26 195 32 30 6 70 12 88 13 33 1 35 -1 58 -62 43 -115 114 -241
156 -277 90 -77 216 -48 268 61 20 43 21 58 17 198 -2 89 -10 169 -18 195 -12
38 -12 45 1 53 157 92 200 119 248 158 97 77 125 167 81 258 -32 64 -85 96
-162 95 -68 0 -75 -3 -217 -95 -136 -89 -304 -154 -535 -208 -222 -51 -270
-55 -700 -55 -295 0 -417 4 -465 13 -376 78 -628 175 -800 307 -144 112 -167
125 -225 125 -38 0 -62 -6 -86 -23z"/>
<path d="M9765 7403 c-102 -37 -184 -94 -269 -184 -92 -97 -134 -178 -147
-280 -12 -94 -4 -155 25 -184 33 -33 127 -42 186 -19 109 42 258 179 319 294
45 85 63 151 63 240 0 93 -17 133 -63 149 -39 14 -31 15 -114 -16z m25 -194
c0 -95 -121 -260 -235 -320 -55 -29 -75 -21 -75 29 0 88 81 204 195 281 96 64
115 66 115 10z"/>
<path d="M9770 6730 c-120 -18 -202 -48 -280 -103 l-35 -25 -44 31 c-95 65
-292 105 -427 86 -181 -25 -318 -111 -421 -261 -90 -132 -123 -248 -123 -430
0 -155 34 -281 129 -483 66 -140 113 -209 195 -290 105 -103 226 -155 361
-155 108 0 187 30 287 106 31 24 61 44 66 44 5 0 34 -18 65 -41 32 -22 83 -52
115 -67 51 -24 68 -27 162 -26 125 1 191 21 290 88 107 74 211 218 261 363 20
58 18 68 -17 95 -25 20 -130 172 -165 238 -20 39 -24 62 -27 175 -4 153 4 180
75 249 26 25 50 46 54 46 4 0 21 12 38 26 51 42 44 80 -29 157 -126 135 -339
207 -530 177z m250 -183 c30 -14 74 -40 98 -57 l44 -31 -47 -50 c-62 -66 -89
-133 -105 -258 -12 -94 -12 -113 4 -189 21 -104 42 -150 124 -275 l64 -98 -29
-55 c-66 -126 -153 -211 -245 -239 -29 -8 -81 -15 -117 -15 -71 0 -103 15
-220 100 -48 36 -61 40 -112 40 -49 0 -63 -5 -105 -35 -155 -112 -150 -110
-249 -110 -76 0 -99 5 -147 27 -90 42 -156 118 -240 279 -121 230 -159 406
-124 569 40 186 121 298 271 373 80 40 152 51 253 37 105 -13 136 -22 226 -66
39 -19 84 -34 100 -34 19 0 57 17 100 45 38 25 76 45 85 46 9 0 48 7 86 14
102 21 217 13 285 -18z"/>
</g>
</svg>
