<?xml version="1.0" encoding="UTF-8"?>
<svg xmlns="http://www.w3.org/2000/svg" xmlns:xlink="http://www.w3.org/1999/xlink" width="50px" height="50px" viewBox="0 0 50 50" version="1.1">
<g id="surface1">

<path style=" stroke:none;fill-rule:nonzero;fill:rgb(163, 163, 163);fill-opacity:1;" d="M 24.113281 0.59375 C 23.933594 0.644531 23.855469 0.75 23.519531 1.402344 C 23.117188 2.195312 23.070312 2.296875 22.898438 2.671875 C 22.820312 2.847656 22.699219 3.121094 22.621094 3.285156 C 22.453125 3.640625 22.261719 4.089844 22.242188 4.1875 C 22.222656 4.273438 22.160156 4.308594 21.9375 4.34375 C 21.195312 4.46875 20.203125 4.734375 19.519531 4.992188 C 18.9375 5.210938 18.015625 5.648438 17.664062 5.871094 C 17.066406 6.246094 16.828125 6.414062 16.398438 6.769531 C 15.882812 7.191406 15.476562 7.621094 15.046875 8.191406 C 14.660156 8.707031 14.402344 9.179688 14.109375 9.886719 C 13.816406 10.617188 13.667969 11.085938 13.492188 11.851562 C 13.296875 12.679688 13.230469 13.144531 13.136719 14.210938 C 13.121094 14.363281 13.101562 14.617188 13.085938 14.773438 C 13.074219 14.925781 13.0625 15.152344 13.0625 15.277344 C 13.0625 15.566406 12.996094 16.25 12.949219 16.453125 C 12.90625 16.636719 12.871094 16.722656 12.703125 16.992188 C 12.566406 17.222656 12.242188 17.894531 12.261719 17.914062 C 12.269531 17.921875 12.261719 17.972656 12.238281 18.023438 C 12.21875 18.082031 12.191406 18.167969 12.179688 18.210938 C 12.164062 18.257812 12.144531 18.328125 12.132812 18.371094 C 12.007812 18.800781 11.917969 19.378906 11.914062 19.742188 C 11.914062 20.03125 12.003906 20.542969 12.117188 20.882812 C 12.195312 21.101562 12.34375 21.441406 12.40625 21.539062 C 12.480469 21.644531 12.464844 21.683594 12.359375 21.667969 C 12.242188 21.648438 12.222656 21.640625 11.90625 21.480469 C 11.757812 21.410156 11.566406 21.292969 11.476562 21.226562 C 11.382812 21.160156 11.21875 21.050781 11.109375 20.984375 C 10.765625 20.773438 10.613281 20.65625 10.027344 20.140625 C 8.820312 19.085938 8.367188 18.578125 7.832031 17.675781 C 7.582031 17.257812 7.359375 16.878906 7.324219 16.816406 C 7.304688 16.78125 7.234375 16.664062 7.164062 16.554688 C 6.777344 15.925781 6.734375 15.882812 6.492188 15.882812 C 6.253906 15.890625 6.082031 16.050781 6.023438 16.320312 C 6.011719 16.394531 5.984375 16.453125 5.972656 16.453125 C 5.953125 16.453125 5.890625 16.402344 5.824219 16.332031 C 5.589844 16.097656 5.332031 16.046875 5.113281 16.191406 C 4.894531 16.335938 4.835938 16.570312 4.90625 17.015625 C 4.921875 17.101562 4.929688 17.171875 4.925781 17.175781 C 4.921875 17.179688 4.863281 17.132812 4.796875 17.074219 C 4.566406 16.867188 4.292969 16.675781 4.195312 16.648438 C 3.96875 16.585938 3.746094 16.6875 3.628906 16.902344 C 3.585938 16.992188 3.578125 17.039062 3.578125 17.3125 C 3.578125 17.488281 3.570312 17.625 3.558594 17.625 C 3.546875 17.625 3.484375 17.585938 3.421875 17.535156 C 3.179688 17.335938 3.023438 17.261719 2.859375 17.261719 C 2.621094 17.261719 2.425781 17.460938 2.398438 17.734375 C 2.390625 17.832031 2.402344 17.898438 2.453125 18.042969 C 2.53125 18.246094 2.714844 18.617188 2.894531 18.910156 C 3.011719 19.105469 4.039062 20.671875 4.136719 20.8125 C 4.320312 21.0625 4.703125 21.5625 5.042969 21.984375 C 5.257812 22.257812 5.460938 22.511719 5.5 22.558594 C 5.929688 23.117188 6.046875 23.269531 6.125 23.34375 C 6.226562 23.453125 6.984375 24.136719 7.179688 24.300781 C 7.476562 24.554688 8.085938 25.015625 8.347656 25.191406 C 8.664062 25.398438 8.664062 25.378906 8.316406 25.460938 C 7.921875 25.554688 7.570312 25.714844 7.164062 25.980469 C 6.839844 26.195312 6.707031 26.335938 6.421875 26.757812 C 6.1875 27.117188 6.101562 27.289062 5.980469 27.710938 C 5.914062 27.925781 5.90625 28.238281 5.941406 29.539062 C 5.949219 29.976562 5.96875 30.804688 5.984375 31.382812 C 6.019531 32.914062 6.050781 34.207031 6.078125 35.316406 C 6.140625 37.8125 6.152344 38.257812 6.175781 39.136719 C 6.1875 39.652344 6.210938 40.515625 6.226562 41.050781 C 6.238281 41.589844 6.257812 42.417969 6.273438 42.894531 C 6.289062 43.371094 6.296875 43.929688 6.296875 44.128906 C 6.296875 44.609375 6.332031 44.75 6.480469 44.886719 C 6.566406 44.96875 6.613281 44.992188 6.742188 45.011719 C 6.851562 45.035156 7.71875 45.046875 9.617188 45.058594 C 11.117188 45.070312 12.375 45.074219 12.414062 45.070312 C 12.621094 45.050781 12.632812 45.054688 12.648438 45.117188 C 12.660156 45.152344 12.707031 45.34375 12.753906 45.542969 C 12.839844 45.894531 12.882812 46.027344 13.148438 46.691406 C 13.507812 47.605469 14.074219 48.277344 14.917969 48.792969 C 15.003906 48.847656 15.121094 48.910156 15.171875 48.9375 C 15.226562 48.960938 15.335938 49.011719 15.410156 49.046875 C 15.550781 49.117188 16 49.261719 16.234375 49.320312 C 16.308594 49.335938 16.515625 49.351562 16.6875 49.351562 C 16.945312 49.351562 17.042969 49.339844 17.222656 49.292969 C 17.777344 49.144531 18.148438 48.929688 18.84375 48.328125 C 19.234375 47.992188 19.636719 47.414062 19.886719 46.828125 C 19.910156 46.765625 19.964844 46.636719 20.007812 46.542969 C 20.136719 46.261719 20.210938 45.78125 20.167969 45.496094 C 20.136719 45.285156 20.132812 45.074219 20.160156 45.058594 C 20.171875 45.050781 21.664062 45.035156 23.472656 45.019531 C 26.03125 44.996094 26.765625 44.996094 26.792969 45.019531 C 26.8125 45.035156 26.832031 45.078125 26.832031 45.113281 C 26.832031 45.152344 26.84375 45.199219 26.867188 45.226562 C 26.882812 45.253906 26.90625 45.320312 26.914062 45.375 C 26.929688 45.476562 27.007812 45.816406 27.054688 45.984375 C 27.101562 46.15625 27.191406 46.398438 27.3125 46.703125 C 27.355469 46.804688 27.417969 46.960938 27.457031 47.058594 C 27.496094 47.152344 27.5625 47.292969 27.605469 47.371094 C 27.648438 47.453125 27.6875 47.519531 27.6875 47.523438 C 27.6875 47.582031 28.175781 48.226562 28.332031 48.375 C 28.492188 48.53125 28.898438 48.851562 29.078125 48.960938 C 29.460938 49.203125 30.027344 49.4375 30.457031 49.527344 C 30.695312 49.578125 31.1875 49.582031 31.371094 49.539062 C 31.59375 49.484375 31.859375 49.390625 32.035156 49.300781 C 32.363281 49.136719 32.859375 48.769531 33.234375 48.414062 C 33.539062 48.128906 33.980469 47.4375 34.183594 46.9375 C 34.191406 46.910156 34.226562 46.828125 34.261719 46.753906 C 34.40625 46.417969 34.441406 46.125 34.402344 45.554688 C 34.386719 45.320312 34.375 45.085938 34.375 45.035156 L 34.375 44.945312 L 35.1875 44.945312 C 35.632812 44.945312 36.34375 44.957031 36.765625 44.96875 C 37.191406 44.984375 38.160156 44.996094 38.917969 45 L 40.296875 45.007812 L 40.394531 44.933594 C 40.445312 44.894531 40.503906 44.847656 40.523438 44.824219 C 40.621094 44.703125 40.621094 44.726562 40.636719 42.269531 C 40.652344 40.578125 40.664062 39.898438 40.683594 39.886719 C 40.699219 39.878906 40.753906 39.867188 40.808594 39.867188 C 40.90625 39.867188 41.261719 39.785156 41.492188 39.710938 C 42.046875 39.527344 42.25 39.4375 42.835938 39.109375 C 43.503906 38.742188 44.507812 37.894531 45.09375 37.207031 C 45.238281 37.039062 45.628906 36.496094 45.628906 36.464844 C 45.628906 36.453125 45.648438 36.414062 45.675781 36.382812 C 45.785156 36.226562 46.085938 35.636719 46.234375 35.289062 C 46.4375 34.8125 46.671875 34.066406 46.78125 33.53125 C 46.792969 33.464844 46.816406 33.371094 46.828125 33.324219 C 46.890625 33.035156 46.96875 32.582031 47.027344 32.179688 C 47.066406 31.875 47.066406 30.738281 47.027344 30.40625 C 46.910156 29.492188 46.8125 29.019531 46.566406 28.210938 C 46.359375 27.519531 46.242188 27.21875 45.886719 26.511719 C 45.542969 25.820312 45.074219 25.164062 44.796875 24.984375 C 44.722656 24.9375 44.671875 24.925781 44.546875 24.925781 C 44.414062 24.925781 44.382812 24.9375 44.308594 25 C 44.125 25.152344 44.101562 25.3125 44.214844 25.664062 C 44.359375 26.101562 44.46875 26.691406 44.542969 27.441406 C 44.585938 27.84375 44.59375 29.015625 44.5625 29.78125 L 44.542969 30.179688 L 44.105469 30.1875 C 43.335938 30.199219 42.90625 30.320312 42.726562 30.570312 C 42.574219 30.777344 42.613281 31 42.847656 31.3125 C 43.015625 31.53125 43.21875 31.839844 43.480469 32.25 C 43.6875 32.585938 43.710938 32.617188 43.84375 32.699219 C 43.898438 32.734375 43.945312 32.769531 43.945312 32.777344 C 43.945312 32.808594 43.75 33.148438 43.648438 33.292969 C 43.507812 33.492188 43.289062 33.742188 43.25 33.742188 C 43.234375 33.742188 43.171875 33.695312 43.113281 33.640625 C 42.832031 33.378906 41.832031 32.625 41.613281 32.511719 C 41.542969 32.476562 41.472656 32.460938 41.363281 32.460938 C 41.234375 32.460938 41.199219 32.46875 41.121094 32.535156 C 40.960938 32.660156 40.914062 32.789062 40.878906 33.210938 C 40.8125 33.992188 40.789062 34.148438 40.753906 34.28125 C 40.734375 34.367188 40.703125 34.421875 40.683594 34.421875 C 40.65625 34.421875 40.652344 34.160156 40.660156 32.746094 C 40.667969 31.820312 40.679688 30.855469 40.6875 30.601562 C 40.710938 29.859375 40.707031 28.421875 40.675781 28.207031 C 40.628906 27.839844 40.523438 27.621094 40.125 27.085938 C 39.867188 26.738281 39.367188 26.230469 39.113281 26.0625 C 38.917969 25.933594 38.644531 25.816406 38.445312 25.777344 C 38.21875 25.738281 37.671875 25.683594 37.460938 25.683594 C 37.289062 25.683594 37.257812 25.675781 37.257812 25.644531 C 37.257812 25.621094 37.316406 25.507812 37.390625 25.386719 C 37.570312 25.097656 37.867188 24.492188 38.058594 24.035156 C 38.21875 23.65625 38.234375 23.628906 38.40625 23.242188 C 38.492188 23.042969 38.507812 22.984375 38.511719 22.839844 C 38.511719 22.640625 38.46875 22.542969 38.335938 22.445312 C 38.253906 22.378906 38.230469 22.375 37.976562 22.367188 C 37.714844 22.359375 37.125 22.386719 36.585938 22.4375 C 36.265625 22.46875 35.621094 22.550781 35.539062 22.574219 C 35.488281 22.585938 35.441406 22.550781 35.257812 22.382812 C 35.132812 22.273438 35.035156 22.171875 35.035156 22.164062 C 35.035156 22.152344 35.066406 22.074219 35.101562 21.992188 C 35.140625 21.90625 35.203125 21.761719 35.238281 21.667969 C 35.277344 21.570312 35.316406 21.476562 35.328125 21.449219 C 35.339844 21.421875 35.367188 21.347656 35.390625 21.28125 C 35.421875 21.195312 35.496094 21.101562 35.707031 20.890625 C 36.464844 20.125 36.859375 19.683594 37.609375 18.75 C 38.054688 18.191406 38.480469 17.574219 38.523438 17.410156 C 38.585938 17.203125 38.53125 17 38.382812 16.851562 C 38.25 16.722656 37.761719 16.453125 37.269531 16.238281 C 37.132812 16.179688 36.96875 16.109375 36.902344 16.078125 C 36.835938 16.046875 36.726562 16 36.65625 15.96875 C 36.398438 15.851562 36.261719 15.785156 36.136719 15.707031 L 36.007812 15.625 L 36.015625 14.707031 L 36.023438 13.792969 L 36.117188 13.703125 C 36.242188 13.578125 36.511719 13.257812 36.648438 13.0625 C 36.980469 12.59375 37.554688 11.578125 37.703125 11.195312 C 38.03125 10.367188 38.21875 9.5 38.132812 9.160156 C 38.082031 8.9375 37.886719 8.765625 37.597656 8.695312 C 37.460938 8.664062 36.84375 8.601562 36.265625 8.570312 C 35.535156 8.523438 35.160156 8.492188 34.8125 8.445312 C 34.632812 8.417969 34.382812 8.382812 34.261719 8.367188 L 34.039062 8.34375 L 33.933594 8.207031 C 33.726562 7.941406 33.460938 7.648438 33.0625 7.25 C 32.703125 6.882812 32.664062 6.835938 32.664062 6.761719 C 32.667969 6.625 32.710938 6.082031 32.738281 5.882812 C 32.835938 5.125 32.894531 4.15625 32.898438 3.160156 C 32.898438 2.925781 32.890625 2.878906 32.839844 2.773438 C 32.726562 2.539062 32.453125 2.453125 32.191406 2.5625 C 32.023438 2.632812 31.605469 2.882812 31.105469 3.207031 C 30.609375 3.523438 30.4375 3.648438 29.894531 4.089844 C 29.265625 4.601562 29.023438 4.796875 28.980469 4.828125 C 28.949219 4.851562 28.914062 4.847656 28.820312 4.820312 C 28.308594 4.664062 27.441406 4.476562 26.867188 4.398438 C 26.421875 4.332031 26.3125 4.3125 26.28125 4.28125 C 26.261719 4.261719 26.230469 4.1875 26.210938 4.117188 C 26.1875 4.046875 26.113281 3.863281 26.039062 3.707031 C 25.886719 3.382812 25.5625 2.664062 25.5625 2.648438 C 25.5625 2.644531 25.535156 2.582031 25.503906 2.507812 C 25.472656 2.4375 25.410156 2.289062 25.367188 2.171875 C 25.273438 1.921875 25.273438 1.921875 25.15625 1.648438 C 25.105469 1.527344 25.042969 1.390625 25.015625 1.34375 C 24.886719 1.097656 24.734375 0.863281 24.652344 0.769531 C 24.515625 0.609375 24.296875 0.539062 24.113281 0.59375 Z M 24.550781 2.480469 C 24.683594 2.816406 24.839844 3.1875 24.898438 3.3125 C 25.039062 3.628906 25.242188 4.136719 25.242188 4.175781 C 25.242188 4.195312 25.199219 4.199219 25.042969 4.183594 C 24.929688 4.171875 24.453125 4.164062 23.980469 4.164062 C 23.207031 4.164062 23.121094 4.15625 23.121094 4.125 C 23.121094 4.101562 23.222656 3.875 23.351562 3.625 C 23.472656 3.367188 23.601562 3.105469 23.632812 3.039062 C 23.726562 2.835938 23.988281 2.3125 24.070312 2.179688 C 24.109375 2.105469 24.144531 2.042969 24.144531 2.039062 C 24.144531 2 24.253906 1.855469 24.277344 1.863281 C 24.292969 1.867188 24.414062 2.144531 24.550781 2.480469 Z M 31.992188 4.203125 C 31.980469 4.679688 31.949219 5.101562 31.859375 5.90625 C 31.847656 6.019531 31.828125 6.125 31.8125 6.136719 C 31.796875 6.152344 31.753906 6.136719 31.683594 6.085938 C 31.625 6.046875 31.519531 5.980469 31.445312 5.945312 C 31.371094 5.90625 31.273438 5.847656 31.226562 5.808594 C 31.136719 5.738281 30.765625 5.554688 30.347656 5.375 C 30.039062 5.242188 29.886719 5.164062 29.882812 5.148438 C 29.882812 5.128906 30.46875 4.65625 30.773438 4.429688 C 31.09375 4.191406 31.917969 3.667969 31.976562 3.664062 C 32 3.664062 32.003906 3.78125 31.992188 4.203125 Z M 25.074219 5.066406 C 27.246094 5.257812 28.738281 5.601562 30.125 6.234375 C 30.65625 6.476562 30.824219 6.566406 31.214844 6.824219 C 31.683594 7.136719 32.09375 7.488281 32.546875 7.960938 C 33.3125 8.757812 33.640625 9.222656 34.121094 10.183594 C 34.460938 10.863281 34.652344 11.347656 34.859375 12.074219 C 35.042969 12.703125 35.105469 13.082031 35.15625 13.867188 C 35.1875 14.367188 35.1875 17.609375 35.15625 17.914062 C 35.054688 18.84375 35.054688 18.839844 34.929688 19.578125 C 34.890625 19.824219 34.722656 20.511719 34.652344 20.722656 C 34.503906 21.164062 34.394531 21.4375 34.125 22.023438 C 34.019531 22.25 34 22.359375 34.03125 22.484375 C 34.070312 22.625 34.179688 22.738281 34.382812 22.84375 C 34.722656 23.011719 34.957031 23.292969 35.203125 23.8125 C 35.394531 24.214844 35.488281 24.507812 35.59375 25.035156 C 35.609375 25.117188 35.632812 25.230469 35.648438 25.285156 C 35.660156 25.34375 35.667969 25.453125 35.667969 25.535156 L 35.667969 25.683594 L 34.957031 25.683594 C 34.5625 25.683594 33.453125 25.671875 32.496094 25.660156 C 30.160156 25.628906 26.671875 25.582031 20.679688 25.511719 C 15.855469 25.457031 12.839844 25.425781 12.671875 25.425781 C 12.570312 25.425781 11.976562 25.417969 11.355469 25.40625 L 10.226562 25.382812 L 10.152344 25.269531 C 10.074219 25.144531 10.035156 25.113281 9.867188 25.058594 C 9.804688 25.039062 9.726562 25.007812 9.691406 24.992188 C 9.609375 24.953125 9.214844 24.71875 9.09375 24.632812 C 9.039062 24.597656 8.898438 24.5 8.777344 24.421875 C 8.46875 24.214844 7.78125 23.675781 7.421875 23.355469 C 6.902344 22.890625 6.640625 22.613281 6.25 22.105469 C 6.042969 21.839844 5.757812 21.476562 5.617188 21.300781 C 5.269531 20.878906 4.882812 20.359375 4.648438 20.003906 C 4.546875 19.84375 4.359375 19.5625 4.230469 19.371094 C 4.105469 19.179688 4.003906 19.015625 4.003906 19.003906 C 4.003906 18.992188 4.085938 18.980469 4.183594 18.980469 C 4.34375 18.980469 4.378906 18.976562 4.46875 18.910156 C 4.628906 18.796875 4.671875 18.703125 4.6875 18.449219 L 4.699219 18.234375 L 4.917969 18.449219 C 5.1875 18.707031 5.320312 18.785156 5.515625 18.785156 C 5.679688 18.785156 5.789062 18.726562 5.886719 18.582031 C 5.941406 18.5 5.945312 18.476562 5.941406 18.144531 C 5.941406 17.953125 5.945312 17.796875 5.953125 17.796875 C 5.960938 17.796875 6.023438 17.871094 6.089844 17.960938 C 6.28125 18.214844 6.421875 18.351562 6.550781 18.40625 C 6.746094 18.488281 6.957031 18.460938 7.066406 18.335938 C 7.09375 18.3125 7.125 18.285156 7.144531 18.285156 C 7.164062 18.285156 7.242188 18.382812 7.316406 18.5 C 7.804688 19.226562 8.214844 19.695312 8.996094 20.398438 C 9.117188 20.511719 9.253906 20.628906 9.300781 20.667969 C 9.347656 20.707031 9.464844 20.804688 9.558594 20.890625 C 9.984375 21.265625 10.847656 21.871094 11.390625 22.179688 C 11.859375 22.445312 12.339844 22.644531 12.828125 22.773438 C 12.882812 22.789062 12.976562 22.8125 13.03125 22.828125 C 13.191406 22.867188 13.445312 22.886719 13.632812 22.863281 C 13.765625 22.851562 13.8125 22.835938 13.878906 22.777344 C 13.992188 22.675781 14.054688 22.496094 14.015625 22.371094 C 13.949219 22.167969 13.808594 21.929688 13.664062 21.777344 C 13.488281 21.597656 13.242188 21.253906 13.144531 21.066406 C 13.109375 20.996094 13.042969 20.84375 13 20.730469 C 12.925781 20.542969 12.898438 20.433594 12.816406 20.074219 C 12.78125 19.9375 12.789062 19.335938 12.820312 19.15625 C 12.964844 18.375 13.109375 17.988281 13.527344 17.242188 C 13.621094 17.078125 13.722656 16.878906 13.753906 16.792969 C 13.851562 16.539062 13.941406 15.761719 13.941406 15.207031 C 13.941406 15.050781 13.949219 14.839844 13.960938 14.730469 C 13.976562 14.625 14 14.402344 14.015625 14.234375 C 14.078125 13.46875 14.132812 13.066406 14.238281 12.535156 C 14.363281 11.910156 14.476562 11.46875 14.644531 10.960938 C 15.121094 9.550781 15.554688 8.816406 16.441406 7.921875 C 16.980469 7.378906 17.53125 6.960938 18.261719 6.53125 C 18.84375 6.195312 19.984375 5.71875 20.648438 5.542969 C 21.125 5.414062 21.226562 5.386719 21.507812 5.320312 C 22.023438 5.207031 22.855469 5.078125 23.316406 5.046875 C 23.65625 5.023438 24.691406 5.035156 25.074219 5.066406 Z M 35.609375 9.347656 C 35.742188 9.363281 35.90625 9.375 35.972656 9.375 C 36.039062 9.375 36.183594 9.382812 36.300781 9.398438 C 36.414062 9.410156 36.675781 9.441406 36.878906 9.460938 C 37.078125 9.484375 37.25 9.507812 37.257812 9.523438 C 37.296875 9.589844 37.113281 10.296875 36.917969 10.804688 C 36.824219 11.058594 36.585938 11.507812 36.3125 11.960938 C 35.980469 12.507812 35.941406 12.574219 35.914062 12.574219 C 35.90625 12.574219 35.882812 12.507812 35.867188 12.429688 C 35.816406 12.199219 35.671875 11.707031 35.542969 11.304688 C 35.363281 10.761719 35.160156 10.28125 34.808594 9.601562 C 34.71875 9.417969 34.648438 9.265625 34.652344 9.253906 C 34.660156 9.246094 34.820312 9.253906 35.015625 9.28125 C 35.207031 9.300781 35.472656 9.332031 35.609375 9.347656 Z M 36.367188 16.710938 C 37.039062 17.027344 37.5625 17.296875 37.570312 17.339844 C 37.578125 17.386719 37.480469 17.515625 36.941406 18.1875 C 36.246094 19.054688 35.855469 19.507812 35.828125 19.476562 C 35.816406 19.46875 35.835938 19.292969 35.863281 19.089844 C 35.941406 18.472656 36.011719 17.429688 36.011719 16.871094 C 36.011719 16.6875 36.019531 16.554688 36.03125 16.558594 C 36.046875 16.558594 36.195312 16.632812 36.367188 16.710938 Z M 37.445312 23.261719 C 37.4375 23.296875 37.390625 23.410156 37.347656 23.511719 C 37.300781 23.609375 37.234375 23.753906 37.203125 23.828125 C 37 24.300781 36.570312 25.097656 36.519531 25.097656 C 36.515625 25.097656 36.492188 25.03125 36.476562 24.945312 C 36.414062 24.636719 36.320312 24.273438 36.242188 24.035156 C 36.171875 23.820312 36.125 23.707031 35.992188 23.417969 C 35.972656 23.375 35.964844 23.328125 35.972656 23.320312 C 35.996094 23.296875 36.21875 23.277344 36.765625 23.242188 C 37.015625 23.226562 37.234375 23.210938 37.257812 23.207031 C 37.273438 23.203125 37.328125 23.199219 37.375 23.195312 C 37.453125 23.195312 37.457031 23.199219 37.445312 23.261719 Z M 11.570312 26.28125 C 12.25 26.289062 13.625 26.304688 14.625 26.320312 C 16.40625 26.34375 20.152344 26.390625 24.183594 26.441406 C 25.296875 26.453125 27.101562 26.476562 28.1875 26.488281 C 29.273438 26.503906 30.601562 26.519531 31.140625 26.527344 C 35.542969 26.578125 36.679688 26.59375 37.339844 26.605469 L 38.097656 26.625 L 38.3125 26.726562 C 38.644531 26.886719 38.835938 27.023438 39.105469 27.289062 C 39.546875 27.730469 39.691406 27.96875 39.761719 28.359375 C 39.796875 28.558594 39.800781 29.164062 39.78125 34.753906 C 39.773438 38.148438 39.757812 41.648438 39.75 42.53125 L 39.734375 44.128906 L 39.304688 44.128906 C 38.820312 44.128906 34.894531 44.070312 34.550781 44.058594 C 34.390625 44.050781 34.3125 44.039062 34.289062 44.015625 C 34.265625 43.992188 34.21875 43.894531 34.183594 43.792969 C 34.042969 43.421875 33.925781 43.285156 33.6875 43.226562 C 33.582031 43.195312 33.539062 43.195312 33.425781 43.222656 C 33.136719 43.292969 32.992188 43.367188 32.414062 43.742188 C 32.324219 43.800781 32.242188 43.84375 32.230469 43.835938 C 32.21875 43.832031 32.195312 43.738281 32.179688 43.628906 C 32.113281 43.246094 31.957031 43.054688 31.683594 43.023438 C 31.460938 43.003906 31.320312 43.082031 30.980469 43.429688 C 30.828125 43.585938 30.671875 43.757812 30.640625 43.804688 C 30.605469 43.855469 30.566406 43.902344 30.550781 43.90625 C 30.539062 43.910156 30.433594 43.785156 30.328125 43.621094 C 30.074219 43.234375 29.960938 43.109375 29.796875 43.03125 C 29.574219 42.925781 29.347656 42.953125 29.164062 43.117188 C 29.058594 43.210938 28.824219 43.558594 28.726562 43.769531 C 28.6875 43.851562 28.640625 43.921875 28.628906 43.921875 C 28.613281 43.921875 28.472656 43.820312 28.3125 43.691406 C 27.902344 43.367188 27.730469 43.289062 27.460938 43.320312 C 27.074219 43.359375 26.828125 43.617188 26.800781 44.007812 L 26.792969 44.105469 L 26.050781 44.117188 C 25.640625 44.128906 24.132812 44.140625 22.699219 44.148438 C 20.472656 44.164062 20.089844 44.160156 20.0625 44.132812 C 20.042969 44.109375 20.003906 43.964844 19.96875 43.804688 C 19.847656 43.148438 19.589844 42.914062 19.117188 43.019531 C 18.953125 43.054688 18.585938 43.246094 18.28125 43.445312 C 18.132812 43.546875 18.003906 43.628906 17.992188 43.628906 C 17.984375 43.628906 17.957031 43.53125 17.933594 43.414062 C 17.90625 43.296875 17.867188 43.15625 17.839844 43.097656 C 17.757812 42.917969 17.574219 42.796875 17.378906 42.796875 C 17.167969 42.796875 16.894531 43.003906 16.527344 43.433594 C 16.402344 43.582031 16.292969 43.695312 16.28125 43.6875 C 16.265625 43.675781 16.164062 43.53125 16.054688 43.363281 C 15.757812 42.910156 15.558594 42.75 15.296875 42.75 C 15 42.75 14.796875 42.945312 14.5 43.511719 L 14.386719 43.730469 L 14.195312 43.574219 C 13.660156 43.140625 13.46875 43.054688 13.140625 43.113281 C 12.964844 43.144531 12.914062 43.167969 12.804688 43.261719 C 12.617188 43.421875 12.546875 43.609375 12.546875 43.964844 L 12.546875 44.222656 L 11.898438 44.207031 C 11.535156 44.195312 10.339844 44.183594 9.234375 44.171875 C 7.367188 44.15625 7.222656 44.152344 7.203125 44.117188 C 7.191406 44.09375 7.167969 43.578125 7.15625 42.976562 C 7.140625 42.375 7.125 41.722656 7.117188 41.527344 C 7.105469 41.203125 7.089844 40.6875 7.03125 38.183594 C 7 36.894531 6.953125 34.949219 6.886719 32.3125 C 6.871094 31.734375 6.847656 30.953125 6.835938 30.578125 C 6.820312 30.203125 6.8125 29.734375 6.8125 29.539062 C 6.8125 29.34375 6.800781 29.09375 6.789062 28.980469 C 6.742188 28.605469 6.839844 27.945312 6.972656 27.671875 C 7.058594 27.496094 7.414062 27.054688 7.574219 26.921875 C 7.710938 26.8125 8.421875 26.445312 8.625 26.382812 C 8.679688 26.363281 8.792969 26.335938 8.875 26.320312 C 8.953125 26.300781 9.054688 26.28125 9.09375 26.265625 C 9.136719 26.253906 9.429688 26.25 9.753906 26.257812 C 10.074219 26.265625 10.894531 26.273438 11.570312 26.28125 Z M 45.613281 28.105469 C 45.964844 29.171875 46.101562 29.855469 46.195312 31 C 46.214844 31.289062 46.214844 31.4375 46.195312 31.683594 C 46.058594 33.082031 45.714844 34.40625 45.234375 35.363281 C 44.773438 36.28125 44.351562 36.816406 43.558594 37.5 C 42.925781 38.042969 42.53125 38.3125 41.957031 38.585938 C 41.574219 38.773438 40.910156 38.988281 40.730469 38.988281 L 40.648438 38.988281 L 40.65625 37.210938 L 40.660156 35.4375 L 40.722656 35.441406 C 40.757812 35.441406 40.867188 35.46875 40.96875 35.5 C 41.453125 35.640625 42.121094 35.558594 42.613281 35.296875 C 42.804688 35.191406 43.25 34.890625 43.457031 34.726562 C 44.308594 34.039062 44.789062 33.296875 45.136719 32.117188 C 45.277344 31.652344 45.320312 31.414062 45.386719 30.871094 C 45.425781 30.539062 45.472656 29.015625 45.464844 28.351562 C 45.460938 28.023438 45.464844 27.757812 45.476562 27.757812 C 45.488281 27.757812 45.550781 27.914062 45.613281 28.105469 Z M 44.472656 31.039062 C 44.496094 31.097656 44.347656 31.738281 44.273438 31.917969 L 44.246094 31.988281 L 44.136719 31.808594 C 44.074219 31.710938 43.972656 31.539062 43.910156 31.433594 C 43.84375 31.324219 43.769531 31.207031 43.742188 31.171875 C 43.652344 31.050781 43.6875 31.03125 44.035156 31.023438 C 44.207031 31.019531 44.371094 31.011719 44.40625 31.011719 C 44.433594 31.007812 44.464844 31.019531 44.472656 31.039062 Z M 41.820312 33.6875 C 42.085938 33.882812 42.441406 34.199219 42.480469 34.277344 L 42.523438 34.367188 L 42.414062 34.445312 C 42.167969 34.605469 41.902344 34.710938 41.617188 34.753906 C 41.480469 34.773438 41.457031 34.742188 41.5 34.574219 C 41.570312 34.300781 41.597656 34.148438 41.625 33.921875 C 41.640625 33.789062 41.65625 33.660156 41.664062 33.636719 C 41.679688 33.589844 41.6875 33.59375 41.820312 33.6875 Z M 15.539062 44.183594 C 15.738281 44.496094 15.886719 44.648438 16.058594 44.734375 C 16.15625 44.785156 16.394531 44.789062 16.507812 44.738281 C 16.621094 44.695312 16.777344 44.539062 16.953125 44.304688 C 17.03125 44.203125 17.105469 44.117188 17.113281 44.117188 C 17.125 44.117188 17.148438 44.175781 17.164062 44.242188 C 17.210938 44.4375 17.257812 44.535156 17.339844 44.625 C 17.457031 44.75 17.546875 44.785156 17.726562 44.785156 C 17.921875 44.785156 18.007812 44.742188 18.421875 44.429688 C 18.742188 44.191406 19.019531 44.015625 19.085938 44.007812 C 19.117188 44.007812 19.132812 44.03125 19.144531 44.117188 C 19.152344 44.175781 19.175781 44.320312 19.195312 44.433594 C 19.21875 44.546875 19.25 44.828125 19.261719 45.058594 C 19.328125 45.9375 19.203125 46.394531 18.707031 47.15625 C 18.472656 47.515625 18.179688 47.789062 17.675781 48.128906 C 17.277344 48.394531 17.039062 48.472656 16.664062 48.46875 C 16.429688 48.46875 16.351562 48.453125 16.09375 48.378906 C 15.242188 48.128906 14.515625 47.570312 14.097656 46.839844 C 14.039062 46.730469 13.988281 46.625 13.988281 46.605469 C 13.988281 46.585938 13.917969 46.386719 13.832031 46.167969 C 13.695312 45.816406 13.613281 45.550781 13.523438 45.152344 C 13.460938 44.855469 13.410156 44.175781 13.453125 44.152344 C 13.488281 44.132812 13.675781 44.277344 14.007812 44.585938 C 14.292969 44.855469 14.492188 44.910156 14.742188 44.785156 C 14.898438 44.707031 14.933594 44.65625 15.109375 44.28125 C 15.265625 43.953125 15.304688 43.871094 15.320312 43.871094 C 15.324219 43.871094 15.421875 44.015625 15.539062 44.183594 Z M 29.773438 44.378906 C 30.085938 44.855469 30.257812 44.996094 30.542969 44.996094 C 30.78125 44.996094 30.910156 44.898438 31.222656 44.5 C 31.292969 44.410156 31.363281 44.339844 31.371094 44.347656 C 31.382812 44.355469 31.40625 44.417969 31.421875 44.488281 C 31.480469 44.773438 31.652344 44.96875 31.878906 45.003906 C 32.085938 45.035156 32.222656 44.980469 32.570312 44.722656 C 32.992188 44.40625 33.332031 44.1875 33.363281 44.214844 C 33.394531 44.25 33.492188 44.941406 33.515625 45.3125 C 33.539062 45.710938 33.515625 46.125 33.453125 46.363281 C 33.328125 46.820312 32.925781 47.492188 32.585938 47.820312 C 32.183594 48.203125 31.605469 48.585938 31.335938 48.644531 C 31.296875 48.652344 31.207031 48.667969 31.140625 48.683594 C 30.75 48.757812 29.972656 48.535156 29.445312 48.191406 C 29.25 48.066406 28.871094 47.765625 28.824219 47.703125 C 28.804688 47.675781 28.753906 47.613281 28.707031 47.5625 C 28.492188 47.328125 28.289062 46.996094 28.210938 46.742188 C 28.179688 46.644531 28.113281 46.46875 28.0625 46.351562 C 27.9375 46.050781 27.890625 45.890625 27.808594 45.519531 C 27.710938 45.074219 27.644531 44.359375 27.703125 44.359375 C 27.75 44.363281 27.847656 44.441406 28.125 44.691406 C 28.289062 44.835938 28.457031 44.976562 28.5 45.003906 C 28.667969 45.109375 28.941406 45.074219 29.097656 44.933594 C 29.1875 44.851562 29.214844 44.808594 29.429688 44.34375 C 29.5 44.195312 29.558594 44.101562 29.574219 44.109375 C 29.589844 44.113281 29.679688 44.238281 29.773438 44.378906 Z M 29.773438 44.378906 "/>
<path style=" stroke:none;fill-rule:nonzero;fill:rgb(163, 163, 163);fill-opacity:1;" d="M 18.273438 11.539062 C 18.054688 11.566406 17.847656 11.605469 17.773438 11.625 C 17.355469 11.753906 16.984375 11.917969 16.734375 12.074219 C 16.414062 12.277344 16.363281 12.320312 16.089844 12.59375 C 15.769531 12.914062 15.5625 13.207031 15.390625 13.5625 C 15.167969 14.039062 15.121094 14.1875 15.050781 14.695312 C 14.976562 15.226562 15.03125 15.785156 15.210938 16.296875 C 15.472656 17.066406 16.011719 17.753906 16.671875 18.175781 C 17.003906 18.386719 17.429688 18.570312 17.773438 18.648438 C 17.835938 18.664062 17.945312 18.6875 18.015625 18.707031 C 18.203125 18.746094 18.980469 18.746094 19.214844 18.703125 C 19.910156 18.578125 20.496094 18.292969 21.023438 17.828125 C 21.410156 17.488281 21.714844 17.0625 21.949219 16.542969 C 22.027344 16.363281 22.144531 15.984375 22.144531 15.898438 C 22.144531 15.875 22.15625 15.828125 22.175781 15.796875 L 22.203125 15.742188 L 23.058594 15.746094 C 23.589844 15.75 23.972656 15.761719 24.070312 15.777344 L 24.226562 15.808594 L 24.28125 16.0625 C 24.585938 17.515625 25.652344 18.585938 27.105469 18.898438 C 27.308594 18.941406 27.4375 18.953125 27.796875 18.953125 C 28.226562 18.953125 28.410156 18.9375 28.710938 18.855469 C 30.070312 18.488281 31.054688 17.449219 31.351562 16.0625 C 31.421875 15.746094 31.425781 15.003906 31.359375 14.695312 C 31.257812 14.203125 31.070312 13.753906 30.796875 13.34375 C 30.632812 13.09375 30.1875 12.628906 29.917969 12.429688 C 29.605469 12.199219 29.085938 11.96875 28.601562 11.84375 C 28.25 11.753906 27.503906 11.726562 27.210938 11.789062 C 26.359375 11.964844 25.582031 12.414062 25.078125 13.019531 C 24.824219 13.324219 24.613281 13.664062 24.515625 13.914062 C 24.496094 13.960938 24.464844 14.03125 24.449219 14.074219 C 24.382812 14.222656 24.335938 14.398438 24.28125 14.660156 L 24.226562 14.929688 L 22.230469 14.929688 L 22.203125 14.722656 C 22.15625 14.382812 22.125 14.25 22.046875 14.007812 C 21.742188 13.109375 21.082031 12.347656 20.25 11.933594 C 19.867188 11.742188 19.585938 11.648438 19.175781 11.585938 C 18.949219 11.550781 18.402344 11.519531 18.273438 11.539062 Z M 19.09375 12.464844 C 19.5625 12.554688 19.890625 12.695312 20.238281 12.945312 C 20.441406 13.09375 20.761719 13.429688 20.886719 13.621094 C 21.230469 14.15625 21.40625 14.824219 21.339844 15.375 C 21.253906 16.101562 21.003906 16.625 20.503906 17.105469 C 20.1875 17.414062 19.867188 17.605469 19.464844 17.730469 C 19.109375 17.84375 19.019531 17.855469 18.617188 17.855469 C 18.195312 17.855469 17.964844 17.816406 17.625 17.679688 C 17.078125 17.464844 16.597656 17.058594 16.304688 16.574219 C 16.15625 16.324219 16.011719 15.980469 15.972656 15.773438 C 15.957031 15.699219 15.933594 15.578125 15.921875 15.507812 C 15.867188 15.25 15.894531 14.804688 15.988281 14.453125 C 16.1875 13.699219 16.730469 13.039062 17.429688 12.699219 C 17.90625 12.472656 18.625 12.371094 19.09375 12.464844 Z M 28.296875 12.683594 C 28.617188 12.746094 28.726562 12.78125 29.019531 12.917969 C 29.515625 13.148438 29.996094 13.625 30.246094 14.136719 C 30.933594 15.53125 30.355469 17.183594 28.953125 17.839844 C 28.824219 17.898438 28.519531 18 28.320312 18.042969 C 28.117188 18.09375 27.496094 18.085938 27.269531 18.03125 C 26.703125 17.898438 26.320312 17.695312 25.929688 17.320312 C 25.503906 16.910156 25.230469 16.402344 25.132812 15.835938 C 25.054688 15.382812 25.113281 14.761719 25.265625 14.390625 C 25.570312 13.675781 26.0625 13.15625 26.699219 12.882812 C 27.179688 12.679688 27.847656 12.59375 28.296875 12.683594 Z M 28.296875 12.683594 "/>
<path style=" stroke:none;fill-rule:nonzero;fill:rgb(163, 163, 163);fill-opacity:1;" d="M 18.382812 12.734375 C 18.179688 12.769531 18.039062 12.808594 17.9375 12.859375 C 17.769531 12.941406 17.425781 13.210938 17.351562 13.324219 C 17.089844 13.703125 16.917969 14.476562 16.917969 15.277344 C 16.917969 15.679688 16.996094 16.113281 17.117188 16.410156 C 17.273438 16.800781 17.601562 17.148438 17.945312 17.304688 C 18.195312 17.417969 18.3125 17.441406 18.628906 17.445312 C 18.898438 17.445312 18.949219 17.4375 19.0625 17.386719 C 19.394531 17.234375 19.660156 16.933594 19.898438 16.445312 C 20.066406 16.097656 20.101562 15.980469 20.164062 15.589844 C 20.253906 15.050781 20.21875 14.382812 20.074219 13.894531 C 19.875 13.195312 19.351562 12.765625 18.667969 12.734375 C 18.546875 12.726562 18.417969 12.726562 18.382812 12.734375 Z M 18.832031 13.707031 C 19.027344 13.789062 19.117188 13.914062 19.214844 14.257812 C 19.339844 14.699219 19.339844 14.714844 19.328125 15.160156 C 19.320312 15.394531 19.304688 15.640625 19.292969 15.710938 C 19.222656 16.09375 18.921875 16.5 18.710938 16.503906 C 18.609375 16.503906 18.597656 16.484375 18.648438 16.410156 C 18.738281 16.285156 18.820312 16.097656 18.859375 15.925781 C 18.921875 15.664062 18.902344 15.136719 18.816406 14.820312 C 18.710938 14.4375 18.605469 14.140625 18.507812 13.9375 C 18.394531 13.714844 18.390625 13.679688 18.464844 13.664062 C 18.542969 13.648438 18.746094 13.667969 18.832031 13.707031 Z M 18.832031 13.707031 "/>
<path style=" stroke:none;fill-rule:nonzero;fill:rgb(163, 163, 163);fill-opacity:1;" d="M 27.527344 13.058594 C 27.433594 13.082031 27.3125 13.125 27.257812 13.152344 C 27.082031 13.242188 26.761719 13.5 26.6875 13.601562 C 26.417969 14 26.265625 14.6875 26.257812 15.527344 C 26.257812 15.972656 26.285156 16.175781 26.390625 16.527344 C 26.488281 16.835938 26.605469 17.035156 26.84375 17.273438 C 27.140625 17.574219 27.449219 17.710938 27.894531 17.738281 C 28.15625 17.757812 28.332031 17.71875 28.53125 17.597656 C 28.691406 17.503906 28.941406 17.246094 29.066406 17.050781 C 29.398438 16.53125 29.539062 15.988281 29.539062 15.242188 C 29.539062 14.3125 29.316406 13.675781 28.863281 13.335938 C 28.496094 13.054688 27.972656 12.945312 27.527344 13.058594 Z M 28.101562 13.976562 C 28.402344 14.082031 28.507812 14.265625 28.589844 14.796875 C 28.625 15.007812 28.609375 15.894531 28.570312 16.0625 C 28.519531 16.296875 28.375 16.640625 28.304688 16.703125 C 28.21875 16.78125 28.027344 16.851562 27.992188 16.820312 C 27.964844 16.800781 27.964844 16.777344 28.003906 16.691406 C 28.027344 16.636719 28.066406 16.503906 28.089844 16.398438 C 28.109375 16.292969 28.140625 16.179688 28.15625 16.152344 C 28.175781 16.117188 28.1875 15.972656 28.183594 15.699219 C 28.183594 15.375 28.167969 15.226562 28.117188 14.929688 C 28.027344 14.433594 27.988281 14.277344 27.917969 14.128906 C 27.882812 14.058594 27.859375 13.988281 27.867188 13.972656 C 27.882812 13.929688 27.972656 13.933594 28.101562 13.976562 Z M 28.101562 13.976562 "/>
<path style=" stroke:none;fill-rule:nonzero;fill:rgb(163, 163, 163);fill-opacity:1;" d="M 19.285156 19.269531 C 19.085938 19.40625 19.039062 19.609375 19.160156 19.832031 C 19.230469 19.964844 19.554688 20.242188 19.847656 20.421875 C 19.925781 20.472656 19.996094 20.527344 19.996094 20.542969 C 19.992188 20.554688 19.976562 20.632812 19.957031 20.714844 C 19.890625 20.984375 19.925781 21.492188 20.019531 21.644531 C 20.101562 21.773438 20.226562 21.839844 20.398438 21.839844 C 20.601562 21.839844 20.738281 21.753906 20.890625 21.539062 C 20.953125 21.449219 21.039062 21.335938 21.085938 21.289062 C 21.125 21.242188 21.175781 21.164062 21.191406 21.109375 C 21.207031 21.0625 21.234375 21.019531 21.253906 21.019531 C 21.273438 21.019531 21.398438 21.046875 21.539062 21.082031 C 21.992188 21.195312 22.265625 21.21875 23.195312 21.230469 C 23.980469 21.242188 24.09375 21.238281 24.402344 21.195312 C 24.589844 21.164062 24.804688 21.128906 24.878906 21.117188 C 24.953125 21.101562 25.046875 21.085938 25.09375 21.085938 C 25.171875 21.082031 25.179688 21.085938 25.234375 21.234375 C 25.339844 21.515625 25.511719 21.824219 25.617188 21.910156 C 25.835938 22.101562 26.140625 22.027344 26.269531 21.761719 C 26.320312 21.65625 26.320312 21.621094 26.3125 21.28125 C 26.304688 21.0625 26.285156 20.867188 26.265625 20.804688 C 26.238281 20.710938 26.238281 20.695312 26.269531 20.671875 C 26.652344 20.449219 26.757812 20.382812 26.875 20.289062 C 27.113281 20.101562 27.179688 19.878906 27.074219 19.65625 C 26.996094 19.5 26.867188 19.421875 26.675781 19.425781 C 26.511719 19.425781 26.492188 19.433594 26.148438 19.65625 C 25.816406 19.875 25.40625 20.035156 24.839844 20.164062 C 24.300781 20.289062 24.183594 20.300781 23.132812 20.300781 C 22.414062 20.300781 22.113281 20.289062 21.996094 20.269531 C 21.078125 20.078125 20.464844 19.839844 20.042969 19.519531 C 19.691406 19.246094 19.636719 19.214844 19.496094 19.214844 C 19.402344 19.214844 19.34375 19.226562 19.285156 19.269531 Z M 19.285156 19.269531 "/>
<path style=" stroke:none;fill-rule:nonzero;fill:rgb(163, 163, 163);fill-opacity:1;" d="M 23.839844 31.925781 C 23.589844 32.015625 23.390625 32.15625 23.183594 32.375 C 22.960938 32.613281 22.855469 32.808594 22.824219 33.058594 C 22.796875 33.289062 22.816406 33.4375 22.886719 33.507812 C 22.964844 33.589844 23.195312 33.609375 23.339844 33.554688 C 23.605469 33.453125 23.96875 33.117188 24.117188 32.835938 C 24.226562 32.628906 24.273438 32.46875 24.273438 32.25 C 24.273438 32.023438 24.230469 31.925781 24.117188 31.886719 C 24.023438 31.851562 24.042969 31.851562 23.839844 31.925781 Z M 23.902344 32.398438 C 23.902344 32.632812 23.605469 33.035156 23.328125 33.179688 C 23.195312 33.25 23.144531 33.234375 23.144531 33.109375 C 23.144531 32.894531 23.34375 32.613281 23.621094 32.425781 C 23.855469 32.269531 23.902344 32.261719 23.902344 32.398438 Z M 23.902344 32.398438 "/>
<path style=" stroke:none;fill-rule:nonzero;fill:rgb(163, 163, 163);fill-opacity:1;" d="M 23.851562 33.570312 C 23.558594 33.613281 23.359375 33.6875 23.167969 33.820312 L 23.082031 33.882812 L 22.976562 33.804688 C 22.742188 33.648438 22.261719 33.550781 21.933594 33.597656 C 21.492188 33.65625 21.15625 33.867188 20.90625 34.234375 C 20.6875 34.554688 20.605469 34.839844 20.605469 35.28125 C 20.605469 35.660156 20.6875 35.96875 20.921875 36.460938 C 21.082031 36.804688 21.195312 36.972656 21.398438 37.171875 C 21.652344 37.421875 21.949219 37.546875 22.277344 37.546875 C 22.542969 37.546875 22.734375 37.476562 22.976562 37.289062 C 23.054688 37.230469 23.128906 37.183594 23.140625 37.183594 C 23.152344 37.183594 23.222656 37.226562 23.296875 37.28125 C 23.375 37.335938 23.5 37.410156 23.578125 37.445312 C 23.703125 37.503906 23.746094 37.511719 23.976562 37.507812 C 24.28125 37.507812 24.441406 37.457031 24.683594 37.296875 C 24.945312 37.113281 25.199219 36.761719 25.320312 36.410156 C 25.367188 36.265625 25.363281 36.242188 25.277344 36.175781 C 25.21875 36.128906 24.960938 35.757812 24.875 35.59375 C 24.828125 35.5 24.816406 35.445312 24.808594 35.167969 C 24.800781 34.796875 24.820312 34.730469 24.992188 34.5625 C 25.054688 34.5 25.113281 34.449219 25.125 34.449219 C 25.132812 34.449219 25.175781 34.417969 25.21875 34.382812 C 25.34375 34.28125 25.324219 34.1875 25.148438 34 C 24.839844 33.671875 24.320312 33.496094 23.851562 33.570312 Z M 24.460938 34.015625 C 24.535156 34.050781 24.644531 34.113281 24.703125 34.15625 L 24.808594 34.230469 L 24.695312 34.351562 C 24.542969 34.515625 24.476562 34.679688 24.4375 34.984375 C 24.410156 35.210938 24.410156 35.257812 24.449219 35.445312 C 24.5 35.699219 24.550781 35.8125 24.75 36.117188 L 24.90625 36.355469 L 24.835938 36.488281 C 24.675781 36.796875 24.460938 37.003906 24.238281 37.074219 C 24.167969 37.09375 24.039062 37.109375 23.953125 37.109375 C 23.78125 37.109375 23.703125 37.074219 23.414062 36.867188 C 23.296875 36.777344 23.265625 36.765625 23.140625 36.765625 C 23.023438 36.765625 22.988281 36.78125 22.886719 36.851562 C 22.507812 37.125 22.519531 37.121094 22.277344 37.121094 C 22.09375 37.121094 22.035156 37.109375 21.917969 37.054688 C 21.699219 36.953125 21.539062 36.765625 21.332031 36.375 C 21.039062 35.8125 20.945312 35.382812 21.03125 34.984375 C 21.128906 34.53125 21.324219 34.257812 21.691406 34.074219 C 21.886719 33.976562 22.0625 33.949219 22.308594 33.984375 C 22.566406 34.015625 22.640625 34.039062 22.859375 34.144531 C 22.957031 34.191406 23.066406 34.226562 23.105469 34.226562 C 23.152344 34.226562 23.246094 34.1875 23.351562 34.117188 C 23.441406 34.058594 23.535156 34.007812 23.558594 34.007812 C 23.578125 34.007812 23.675781 33.988281 23.765625 33.972656 C 24.015625 33.921875 24.296875 33.941406 24.460938 34.015625 Z M 24.460938 34.015625 "/>
</g>
</svg>
